<svg width="24" height="24" viewBox="0 0 24 24" fill="none" xmlns="http://www.w3.org/2000/svg">
<path d="M14.2026 1.78871C13.9168 1.1433 13.5664 0.69151 13.1607 0.414906C12.755 0.138302 12.294 0 11.7869 0C11.2798 0 10.7819 0.138302 10.3762 0.414906C9.97055 0.69151 9.62019 1.15252 9.33437 1.78871L0.575242 21.2063C0.353959 21.7134 0.280198 22.1744 0.344739 22.5801C0.40928 22.9858 0.602904 23.3177 0.925608 23.5574C1.24831 23.7972 1.67244 23.9262 2.20721 23.9262C2.77885 23.9262 3.22142 23.7787 3.5349 23.4929C3.84839 23.2071 4.14343 22.7368 4.42926 22.1007L6.06122 18.2466H17.4757L19.1354 22.1007C19.4027 22.7184 19.707 23.1794 20.0482 23.4745C20.3893 23.7695 20.8687 23.9262 21.4957 23.9262C22.0028 23.9262 22.4177 23.8064 22.722 23.5759C23.0355 23.3454 23.2199 23.0134 23.2844 22.5985C23.349 22.1744 23.266 21.7134 23.017 21.2063L14.2026 1.78871ZM11.7132 4.87745H11.7777L16.0097 14.8721H7.50878L11.7132 4.87745Z" fill="black"/>
</svg>
